<svg xmlns="http://www.w3.org/2000/svg" viewBox="0 0 718.85 567"><defs><style>.cls-1{fill:#fff;}</style></defs><title>menuAsset 21</title><g id="Layer_2" data-name="Layer 2"><g id="Layer_1-2" data-name="Layer 1"><path class="cls-1" d="M620.2,337.74c3,11.23,6.88,21.92,8.7,33,8.21,49.9-21.41,91.09-72.76,97.18-18.52,2.2-36.61.38-53.75-7.12-6.68-2.92-12.71-7.35-18.49-11.59,9.44,2.76,18.72,6.68,28.36,8.07,33.74,4.9,61.32-6.72,81.79-33.86,10.59-14,10.62-30.44,7.05-46.9C597.74,361,590.88,347,582.51,333.67c-.79-1.26-1.6-2.53-2.36-3.81A2.67,2.67,0,0,1,580,329c11.72-5.08,23.6-9.79,35.1-15.29,25.39-12.13,41-32.85,49.55-59.06,9.15-27.93,6.16-55.79-1.34-83.58-14.11-52.26-48.79-86.22-96.43-108.51C534.37,47.34,499.93,39.76,464.29,37c-63.5-4.9-124.18,6.71-182.81,30.75C222.7,91.87,169,124.44,119.79,164.54a14.5,14.5,0,0,1-1.23.81l-1.06-.9,30.36-36c-1.63-.21-3.12-.47-4.63-.59-33.1-2.59-64.4,2.67-92.29,21.87-13.75,9.47-24.39,21.6-29.68,37.79-7.53,23.09-1.82,42.95,16.69,58.82,12.16,10.43,26.05,17.77,41,23.35a10.34,10.34,0,0,1,3.26,1.84c-31.75-.71-56.47-13.77-73.06-41.37-14.06-23.38-10.22-46.71.53-69.66,16.48-35.2,46.12-52.42,83.05-59.15,27.14-5,54.27-4.72,81.48-.39a12.55,12.55,0,0,0,8.58-2.11c61.18-46,129.66-75.47,204.53-90.43,32.92-6.57,66.22-9.58,99.77-8C546.33,3.24,601,19.89,648.13,57.07c33.24,26.21,57.62,59,66.4,101,10.34,49.37,2.7,95.82-29.16,136.37-16.14,20.55-37.46,34.19-62.29,42.31C621.86,337.11,620.66,337.57,620.2,337.74Z"/><path class="cls-1" d="M422,456.69c13.46-35.11,33.74-65.4,56.45-94.72-7.74,0-14.64,0-21.54,0-23.45-.13-46.47-2.48-68.19-12.35-25.3-11.51-45.45-29.29-62.51-50.84-17.49-22.1-30.53-46.73-40.85-72.86a26.6,26.6,0,0,1-.54-3.4c28.53,49.37,65,88.51,119.28,105.35,52.31,16.23,105.47,21.64,157.69-2.75-1.47,1.67-3.08,3.8-5,5.61-15.62,14.72-34.59,22.93-55.33,26.84-6.81,1.29-10.37,4.76-13.54,10.1C473,392.85,462.55,420,452.73,447.42c-2.18,6.1-4,12.33-6.23,18.4-1,2.59-.31,3.89,1.95,5.2,5.45,3.15,10.76,6.52,15.86,9.64-11.66,14-24.19,26.89-34,41.57s-16.84,31.11-24,44.77c2.7-25,5.88-52.51,19.11-78.15C318.09,436.28,204.16,411.75,86,402.63c-4.77,25.91-5.94,52-15.16,77.2,63.26,14.28,123.68,35.73,178.42,71.38-68.61-24.55-138-45.73-212.14-49.74,8.39-21.07,15.93-42.14,17-64.48s.23-44.5.23-67.56L96,373.12c8-29.92,12.67-60.22,15.23-90.87,2.57-30.88-.06-61.41-5.8-92,2.88,7,6.13,13.83,8.56,20.95C125,243.71,128.23,277.45,128,311.52c-.12,20.61-1.61,41.22-2.47,61.83,0,1,0,2,0,3.46C227.31,391.57,327.53,412,422,456.69Z"/></g></g></svg>